# xmcd
#
# Track frame offsets:
# 150
# 14899
# 27594
# 42142
# 59816
# 81217
# 99170
# 115119
# 129412
# 152146
# 165704
# 183485
# 197574
# 211465
# 230382
#
# Disc length: 3263 seconds
#
#
# Revision: 0
# Processed by: cddbd v1.5.2PL0 Copyright (c) Steve Scherf et al.
# Submitted via: FreeRIP 2.51 
#
DISCID=cd0cbd0f
DTITLE=MGS Various - Out of the Blue
DYEAR=2006
DGENRE=Oldies
TTITLE0=Strawberry Fields Forever
TTITLE1=Something Stupid
TTITLE2=Roxanne
TTITLE3=After the Goldrush
TTITLE4=Fool
TTITLE5=Satisfaction
TTITLE6=She's Leaving Home
TTITLE7=One
TTITLE8=Maybe I'm Amazed
TTITLE9=Desperado
TTITLE10=You Never Give Me Your Money
TTITLE11=Close To You
TTITLE12=I Shall Be Released
TTITLE13=Everyone Says Hi
TTITLE14=Friday On My Mind
EXTD=
EXTT0=Vincent Leung
EXTT1=Steve Vizard and Jane Badler-Hains
EXTT2=Will Smibert
EXTT3=Wadhusrt Choir and Justin de Steiger on Horn
EXTT4=Julian Cairns
EXTT5=The Hills
EXTT6=Killan Brown and Stuart Watson on Cello
EXTT7=Fred Mora
EXTT8=Wadhurst Choir with Kip Davey and Hugi Dean on Guitar
EXTT9=Tom Li
EXTT10=James Keil
EXTT11=Nicholas Jones
EXTT12=Will Breidahl
EXTT13=Senior Nine
EXTT14=Ben Wall
PLAYORDER=
